<svg width="657.9px" height="122px" xmlns="http://www.w3.org/2000/svg" viewBox="-78.94687499999998 14 657.89375 122" style="background: rgba(0, 0, 0, 0)" preserveAspectRatio="xMidYMid"><defs><linearGradient id="editing-gradient-gradient" x1="0" x2="1" y1="0.5" y2="0.5" gradientUnits="objectBoundingBox"><stop offset="0" stop-color="#4566d1"></stop><stop offset="1" stop-color="#00ffff"></stop></linearGradient></defs><g><g transform="matrix(1.4,0,0,1.7,-55.7,205.6)"><path d="M 5.2 -58 L -8.8 -58 L -0.7 -100.2 L 13.4 -100.2 L 5.2 -58 Z M 60.9 -56.7 L 60.9 -56.7 L 60.9 -56.7 Q 53.2 -56.7 53.2 -62.7 L 53.2 -62.7 L 53.2 -62.7 Q 53.2 -65.3 54.3 -70.4 L 54.3 -70.4 L 54.3 -70.4 Q 55.4 -75.5 55.8 -77.5 L 55.8 -77.5 L 55.8 -77.5 Q 56.7 -82.2 56.7 -83.7 L 56.7 -83.7 L 56.7 -83.7 Q 56.7 -87 54.3 -87 L 54.3 -87 L 54.3 -87 Q 52.7 -87 51.1 -84.7 L 51.1 -84.7 L 51.1 -84.7 Q 49.6 -82.5 48.9 -78.1 L 48.9 -78.1 L 44.9 -58 L 32.4 -56.7 L 35.9 -74.1 L 35.9 -74.1 Q 36.5 -77 37 -80.2 L 37 -80.2 L 37 -80.2 Q 37.5 -83.5 37.5 -84 L 37.5 -84 L 37.5 -84 Q 37.5 -87 35.3 -87 L 35.3 -87 L 35.3 -87 Q 33.8 -87 32.2 -84.8 L 32.2 -84.8 L 32.2 -84.8 Q 30.6 -82.6 29.7 -78.1 L 29.7 -78.1 L 25.8 -58 L 13.2 -56.7 L 20 -90.6 L 30.4 -91.9 L 29.3 -85.4 L 29.3 -85.4 Q 31 -88.9 34 -90.4 L 34 -90.4 L 34 -90.4 Q 37.1 -91.9 41.9 -91.9 L 41.9 -91.9 L 41.9 -91.9 Q 44.7 -91.9 46.5 -90.5 L 46.5 -90.5 L 46.5 -90.5 Q 48.2 -89.2 48.8 -87 L 48.8 -87 L 48.8 -87 Q 49.9 -89.3 52.7 -90.6 L 52.7 -90.6 L 52.7 -90.6 Q 55.5 -91.9 58.9 -91.9 L 58.9 -91.9 L 58.9 -91.9 Q 62.3 -91.9 64 -91.1 L 64 -91.1 L 64 -91.1 Q 65.7 -90.4 66.7 -89.2 L 66.7 -89.2 L 66.7 -89.2 Q 68.5 -87 68.5 -82.9 L 68.5 -82.9 L 68.5 -82.9 Q 68.5 -78.8 66.7 -70.4 L 66.7 -70.4 L 66.7 -70.4 Q 65.8 -66.3 65.8 -64.8 L 65.8 -64.8 L 65.8 -64.8 Q 65.8 -63.3 66.7 -62.4 L 66.7 -62.4 L 66.7 -62.4 Q 67.6 -61.5 68.9 -61.4 L 68.9 -61.4 L 68.9 -61.4 Q 68.2 -59.2 66 -58 L 66 -58 L 66 -58 Q 63.8 -56.7 60.9 -56.7 Z M 76.6 -59.9 L 76.6 -59.9 L 76.6 -59.9 Q 75.1 -61.5 74.4 -64.2 L 74.4 -64.2 L 74.4 -64.2 Q 73.7 -66.8 73.7 -71.1 L 73.7 -71.1 L 73.7 -71.1 Q 73.7 -75.4 75.2 -79.3 L 75.2 -79.3 L 75.2 -79.3 Q 76.7 -83.2 79.3 -86 L 79.3 -86 L 79.3 -86 Q 84.9 -91.9 93.9 -91.9 L 93.9 -91.9 L 93.9 -91.9 Q 97.2 -91.9 99.6 -90.8 L 99.6 -90.8 L 110.5 -91.9 L 105.8 -66.9 L 105.8 -66.9 Q 105.6 -66.2 105.6 -64.7 L 105.6 -64.7 L 105.6 -64.7 Q 105.6 -63.3 106.5 -62.4 L 106.5 -62.4 L 106.5 -62.4 Q 107.3 -61.5 108.6 -61.4 L 108.6 -61.4 L 108.6 -61.4 Q 108 -59.2 105.6 -58 L 105.6 -58 L 105.6 -58 Q 103.3 -56.7 100.7 -56.7 L 100.7 -56.7 L 100.7 -56.7 Q 98 -56.7 96.3 -57.7 L 96.3 -57.7 L 96.3 -57.7 Q 94.5 -58.7 94 -60.3 L 94 -60.3 L 94 -60.3 Q 93 -58.7 90.8 -57.7 L 90.8 -57.7 L 90.8 -57.7 Q 88.6 -56.7 85.7 -56.7 L 85.7 -56.7 L 85.7 -56.7 Q 82.8 -56.7 80.4 -57.5 L 80.4 -57.5 L 80.4 -57.5 Q 78.1 -58.2 76.6 -59.9 Z M 90.1 -85.9 L 90.1 -85.9 L 90.1 -85.9 Q 89.3 -84.7 88.7 -82.8 L 88.7 -82.8 L 88.7 -82.8 Q 88.1 -80.8 87 -75.6 L 87 -75.6 L 87 -75.6 Q 85.9 -70.4 85.9 -66.7 L 85.9 -66.7 L 85.9 -66.7 Q 85.9 -63 86.5 -61.9 L 86.5 -61.9 L 86.5 -61.9 Q 87.1 -60.8 88.1 -60.8 L 88.1 -60.8 L 88.1 -60.8 Q 90.2 -60.8 91.7 -62.7 L 91.7 -62.7 L 91.7 -62.7 Q 93.2 -64.7 93.7 -68.1 L 93.7 -68.1 L 97.1 -86.9 L 97.1 -86.9 Q 95.8 -88 94.2 -88 L 94.2 -88 L 94.2 -88 Q 92.7 -88 91.7 -87.5 L 91.7 -87.5 L 91.7 -87.5 Q 90.8 -87 90.1 -85.9 Z M 118.3 -84.7 L 118.3 -84.7 L 118.3 -84.7 Q 120.4 -87.8 123.7 -89.8 L 123.7 -89.8 L 123.7 -89.8 Q 127 -91.9 131.1 -91.9 L 131.1 -91.9 L 131.1 -91.9 Q 135.1 -91.9 137 -90.6 L 137 -90.6 L 149.6 -91.9 L 145.2 -67.3 L 145.2 -67.3 Q 143 -54.8 138.2 -49.8 L 138.2 -49.8 L 138.2 -49.8 Q 133.7 -45.2 124.9 -45.2 L 124.9 -45.2 L 124.9 -45.2 Q 118.1 -45.2 114.3 -47.3 L 114.3 -47.3 L 114.3 -47.3 Q 110.5 -49.4 110.5 -52.9 L 110.5 -52.9 L 110.5 -52.9 Q 110.5 -55.5 112.4 -57 L 112.4 -57 L 112.4 -57 Q 114.4 -58.5 117.5 -58.5 L 117.5 -58.5 L 117.5 -58.5 Q 120.2 -58.5 122.2 -57.3 L 122.2 -57.3 L 122.2 -57.3 Q 123.4 -56.7 124 -55.8 L 124 -55.8 L 124 -55.8 Q 122.5 -54.5 122.5 -52.4 L 122.5 -52.4 L 122.5 -52.4 Q 122.5 -49.6 125.1 -49.6 L 125.1 -49.6 L 125.1 -49.6 Q 129.4 -49.6 131.8 -59.8 L 131.8 -59.8 L 131.8 -59.8 Q 132.5 -62.5 133.1 -65.3 L 133.1 -65.3 L 133.1 -65.3 Q 130.2 -61.7 123.7 -61.7 L 123.7 -61.7 L 123.7 -61.7 Q 119.2 -61.7 116.5 -63.9 L 116.5 -63.9 L 116.5 -63.9 Q 113.9 -66.1 113.9 -71.2 L 113.9 -71.2 L 113.9 -71.2 Q 113.9 -74.4 115 -78 L 115 -78 L 115 -78 Q 116.1 -81.6 118.3 -84.7 Z M 126.6 -71 L 126.6 -71 L 126.6 -71 Q 126.6 -66.7 128.8 -66.7 L 128.8 -66.7 L 128.8 -66.7 Q 130.4 -66.7 131.8 -68.3 L 131.8 -68.3 L 131.8 -68.3 Q 133 -69.7 133.4 -71.7 L 133.4 -71.7 L 136.7 -88.1 L 136.7 -88.1 Q 136.4 -88.2 136.1 -88.3 L 136.1 -88.3 L 136.1 -88.3 Q 135.4 -88.6 134.6 -88.6 L 134.6 -88.6 L 134.6 -88.6 Q 130.7 -88.6 128.4 -82.2 L 128.4 -82.2 L 128.4 -82.2 Q 126.6 -77.2 126.6 -71 Z M 178 -68.8 L 178 -68.8 L 178 -68.8 Q 179.6 -67.7 179.6 -65.3 L 179.6 -65.3 L 179.6 -65.3 Q 179.6 -62.9 178.4 -61.4 L 178.4 -61.4 L 178.4 -61.4 Q 177.1 -59.8 175.2 -58.8 L 175.2 -58.8 L 175.2 -58.8 Q 171.1 -56.7 166.6 -56.7 L 166.6 -56.7 L 166.6 -56.7 Q 162.2 -56.7 159.6 -57.6 L 159.6 -57.6 L 159.6 -57.6 Q 157 -58.6 155.3 -60.4 L 155.3 -60.4 L 155.3 -60.4 Q 151.9 -63.8 151.9 -70 L 151.9 -70 L 151.9 -70 Q 151.9 -79.7 157.2 -85.5 L 157.2 -85.5 L 157.2 -85.5 Q 162.8 -91.9 172.6 -91.9 L 172.6 -91.9 L 172.6 -91.9 Q 178.7 -91.9 181.7 -89.3 L 181.7 -89.3 L 181.7 -89.3 Q 183.9 -87.4 183.9 -84.3 L 183.9 -84.3 L 183.9 -84.3 Q 183.9 -73 164.5 -73 L 164.5 -73 L 164.5 -73 Q 164.2 -71.3 164.2 -69.9 L 164.2 -69.9 L 164.2 -69.9 Q 164.2 -67 165.5 -65.9 L 165.5 -65.9 L 165.5 -65.9 Q 166.8 -64.7 169.3 -64.7 L 169.3 -64.7 L 169.3 -64.7 Q 171.7 -64.7 174.3 -65.9 L 174.3 -65.9 L 174.3 -65.9 Q 176.9 -67 178 -68.8 Z M 164.9 -75.8 L 164.9 -75.8 L 164.9 -75.8 Q 169.5 -75.8 172.1 -78.6 L 172.1 -78.6 L 172.1 -78.6 Q 174.7 -81.3 174.7 -85.5 L 174.7 -85.5 L 174.7 -85.5 Q 174.7 -87 174.2 -87.8 L 174.2 -87.8 L 174.2 -87.8 Q 173.6 -88.6 172.5 -88.6 L 172.5 -88.6 L 172.5 -88.6 Q 171.4 -88.6 170.5 -88.2 L 170.5 -88.2 L 170.5 -88.2 Q 169.6 -87.8 168.6 -86.4 L 168.6 -86.4 L 168.6 -86.4 Q 166.3 -83.2 164.9 -75.8 Z M 205.2 -80.4 L 205.2 -80.4 L 205.2 -80.4 Q 206.1 -82.8 206.1 -84.8 L 206.1 -84.8 L 206.1 -84.8 Q 206.1 -88.6 203.1 -88.6 L 203.1 -88.6 L 203.1 -88.6 Q 201.5 -88.6 200.1 -87.2 L 200.1 -87.2 L 200.1 -87.2 Q 198.8 -85.7 198.8 -83.9 L 198.8 -83.9 L 198.8 -83.9 Q 198.8 -82.7 199.9 -81.6 L 199.9 -81.6 L 199.9 -81.6 Q 201.3 -80.2 205.1 -77.9 L 205.1 -77.9 L 205.1 -77.9 Q 208.9 -75.6 210.3 -73.7 L 210.3 -73.7 L 210.3 -73.7 Q 211.8 -71.9 211.8 -69.3 L 211.8 -69.3 L 211.8 -69.3 Q 211.8 -66.7 210.5 -64.3 L 210.5 -64.3 L 210.5 -64.3 Q 209.3 -61.9 207 -60.3 L 207 -60.3 L 207 -60.3 Q 202.2 -56.7 194.5 -56.7 L 194.5 -56.7 L 194.5 -56.7 Q 190.4 -56.7 187.2 -58.9 L 187.2 -58.9 L 187.2 -58.9 Q 184 -61 184 -63.5 L 184 -63.5 L 184 -63.5 Q 184 -66 185.8 -67.4 L 185.8 -67.4 L 185.8 -67.4 Q 187.6 -68.9 190.3 -68.9 L 190.3 -68.9 L 190.3 -68.9 Q 193 -68.9 194.7 -67.9 L 194.7 -67.9 L 194.7 -67.9 Q 193.8 -65.8 193.8 -64.4 L 193.8 -64.4 L 193.8 -64.4 Q 193.8 -60.1 197.4 -60.1 L 197.4 -60.1 L 197.4 -60.1 Q 199 -60.1 200 -61.1 L 200 -61.1 L 200 -61.1 Q 201 -62.1 201 -63.7 L 201 -63.7 L 201 -63.7 Q 201 -67 195.5 -70.4 L 195.5 -70.4 L 195.5 -70.4 Q 191 -73.4 190 -74.5 L 190 -74.5 L 190 -74.5 Q 188.3 -76.6 188.3 -79.1 L 188.3 -79.1 L 188.3 -79.1 Q 188.3 -81.7 189.5 -84.1 L 189.5 -84.1 L 189.5 -84.1 Q 190.7 -86.6 192.9 -88.3 L 192.9 -88.3 L 192.9 -88.3 Q 197.6 -91.9 205.7 -91.9 L 205.7 -91.9 L 205.7 -91.9 Q 209.9 -91.9 212.4 -90.2 L 212.4 -90.2 L 212.4 -90.2 Q 214.8 -88.6 214.8 -85.7 L 214.8 -85.7 L 214.8 -85.7 Q 214.8 -82.9 213.1 -81.3 L 213.1 -81.3 L 213.1 -81.3 Q 211.4 -79.7 208.4 -79.7 L 208.4 -79.7 L 208.4 -79.7 Q 206.3 -79.7 205.2 -80.4 Z M 256.3 -78.6 L 269.2 -79.7 L 269.2 -79.7 Q 264.6 -69.6 264.6 -57.9 L 264.6 -57.9 L 264.6 -57.9 Q 262.9 -56.7 260.4 -56.7 L 260.4 -56.7 L 260.4 -56.7 Q 257.8 -56.7 256.2 -57.9 L 256.2 -57.9 L 256.2 -57.9 Q 254.6 -59.1 254.3 -60.3 L 254.3 -60.3 L 254.3 -60.3 Q 252.7 -58.6 250.1 -57.6 L 250.1 -57.6 L 250.1 -57.6 Q 247.5 -56.7 244.8 -56.7 L 244.8 -56.7 L 244.8 -56.7 Q 242 -56.7 239.6 -57.6 L 239.6 -57.6 L 239.6 -57.6 Q 237.2 -58.5 235.4 -60.5 L 235.4 -60.5 L 235.4 -60.5 Q 231.3 -64.8 231.3 -73.1 L 231.3 -73.1 L 231.3 -73.1 Q 231.3 -85.9 238.1 -93.5 L 238.1 -93.5 L 238.1 -93.5 Q 245.2 -101.5 257.7 -101.5 L 257.7 -101.5 L 257.7 -101.5 Q 266.3 -101.5 269.4 -97 L 269.4 -97 L 269.4 -97 Q 270.3 -95.6 270.3 -93.9 L 270.3 -93.9 L 270.3 -93.9 Q 270.3 -92.2 269.6 -90.8 L 269.6 -90.8 L 269.6 -90.8 Q 268.9 -89.3 267.7 -88.2 L 267.7 -88.2 L 267.7 -88.2 Q 264.9 -85.6 261.6 -85.6 L 261.6 -85.6 L 261.6 -85.6 Q 260.2 -85.6 258.9 -86.1 L 258.9 -86.1 L 258.9 -86.1 Q 259.2 -88 259.2 -90.2 L 259.2 -90.2 L 259.2 -90.2 Q 259.2 -92.5 259 -93.5 L 259 -93.5 L 259 -93.5 Q 258.9 -94.5 258.5 -95.3 L 258.5 -95.3 L 258.5 -95.3 Q 257.7 -97.1 255.8 -97.1 L 255.8 -97.1 L 255.8 -97.1 Q 254 -97.1 252 -95.1 L 252 -95.1 L 252 -95.1 Q 250 -93.2 248.4 -90 L 248.4 -90 L 248.4 -90 Q 244.9 -82.8 244.9 -74.2 L 244.9 -74.2 L 244.9 -74.2 Q 244.9 -70.2 246.4 -67.4 L 246.4 -67.4 L 246.4 -67.4 Q 248.1 -64.3 251 -64.3 L 251 -64.3 L 251 -64.3 Q 252 -64.3 252.9 -64.8 L 252.9 -64.8 L 252.9 -64.8 Q 253.9 -65.3 254.3 -65.7 L 254.3 -65.7 L 256.3 -78.6 Z M 275.2 -59.9 L 275.2 -59.9 L 275.2 -59.9 Q 273.7 -61.5 273 -64.2 L 273 -64.2 L 273 -64.2 Q 272.3 -66.8 272.3 -71.1 L 272.3 -71.1 L 272.3 -71.1 Q 272.3 -75.4 273.8 -79.3 L 273.8 -79.3 L 273.8 -79.3 Q 275.3 -83.2 277.9 -86 L 277.9 -86 L 277.9 -86 Q 283.4 -91.9 292.5 -91.9 L 292.5 -91.9 L 292.5 -91.9 Q 295.8 -91.9 298.2 -90.8 L 298.2 -90.8 L 309.1 -91.9 L 304.4 -66.9 L 304.4 -66.9 Q 304.2 -66.2 304.2 -64.7 L 304.2 -64.7 L 304.2 -64.7 Q 304.2 -63.3 305 -62.4 L 305 -62.4 L 305 -62.4 Q 305.9 -61.5 307.2 -61.4 L 307.2 -61.4 L 307.2 -61.4 Q 306.5 -59.2 304.2 -58 L 304.2 -58 L 304.2 -58 Q 301.9 -56.7 299.3 -56.7 L 299.3 -56.7 L 299.3 -56.7 Q 296.6 -56.7 294.9 -57.7 L 294.9 -57.7 L 294.9 -57.7 Q 293.1 -58.7 292.6 -60.3 L 292.6 -60.3 L 292.6 -60.3 Q 291.6 -58.7 289.4 -57.7 L 289.4 -57.7 L 289.4 -57.7 Q 287.2 -56.7 284.3 -56.7 L 284.3 -56.7 L 284.3 -56.7 Q 281.4 -56.7 279 -57.5 L 279 -57.5 L 279 -57.5 Q 276.7 -58.2 275.2 -59.9 Z M 288.7 -85.9 L 288.7 -85.9 L 288.7 -85.9 Q 287.9 -84.7 287.3 -82.8 L 287.3 -82.8 L 287.3 -82.8 Q 286.6 -80.8 285.6 -75.6 L 285.6 -75.6 L 285.6 -75.6 Q 284.5 -70.4 284.5 -66.7 L 284.5 -66.7 L 284.5 -66.7 Q 284.5 -63 285.1 -61.9 L 285.1 -61.9 L 285.1 -61.9 Q 285.7 -60.8 286.7 -60.8 L 286.7 -60.8 L 286.7 -60.8 Q 288.8 -60.8 290.3 -62.7 L 290.3 -62.7 L 290.3 -62.7 Q 291.8 -64.7 292.3 -68.1 L 292.3 -68.1 L 295.7 -86.9 L 295.7 -86.9 Q 294.4 -88 292.8 -88 L 292.8 -88 L 292.8 -88 Q 291.3 -88 290.3 -87.5 L 290.3 -87.5 L 290.3 -87.5 Q 289.4 -87 288.7 -85.9 Z M 327.9 -61.5 L 327.9 -61.5 L 327.9 -61.5 Q 325.9 -56.7 319.5 -56.7 L 319.5 -56.7 L 319.5 -56.7 Q 316.3 -56.7 314.3 -58.9 L 314.3 -58.9 L 314.3 -58.9 Q 312.6 -60.8 312.6 -62.9 L 312.6 -62.9 L 312.6 -62.9 Q 312.6 -67.7 314.9 -78.2 L 314.9 -78.2 L 319.5 -102.8 L 332.5 -104 L 326.3 -71.7 L 326.3 -71.7 Q 325.2 -66.9 325.2 -65.3 L 325.2 -65.3 L 325.2 -65.3 Q 325.2 -61.6 327.9 -61.5 Z M 348.6 -61.5 L 348.6 -61.5 L 348.6 -61.5 Q 346.6 -56.7 340.3 -56.7 L 340.3 -56.7 L 340.3 -56.7 Q 337.1 -56.7 335 -58.9 L 335 -58.9 L 335 -58.9 Q 333.4 -60.8 333.4 -62.9 L 333.4 -62.9 L 333.4 -62.9 Q 333.4 -67.7 335.6 -78.2 L 335.6 -78.2 L 340.3 -102.8 L 353.3 -104 L 347.1 -71.7 L 347.1 -71.7 Q 346 -66.9 346 -65.3 L 346 -65.3 L 346 -65.3 Q 346 -61.6 348.6 -61.5 Z M 380 -68.8 L 380 -68.8 L 380 -68.8 Q 381.6 -67.7 381.6 -65.3 L 381.6 -65.3 L 381.6 -65.3 Q 381.6 -62.9 380.3 -61.4 L 380.3 -61.4 L 380.3 -61.4 Q 379.1 -59.8 377.1 -58.8 L 377.1 -58.8 L 377.1 -58.8 Q 373 -56.7 368.6 -56.7 L 368.6 -56.7 L 368.6 -56.7 Q 364.2 -56.7 361.6 -57.6 L 361.6 -57.6 L 361.6 -57.6 Q 359 -58.6 357.3 -60.4 L 357.3 -60.4 L 357.3 -60.4 Q 353.9 -63.8 353.9 -70 L 353.9 -70 L 353.9 -70 Q 353.9 -79.7 359.2 -85.5 L 359.2 -85.5 L 359.2 -85.5 Q 364.8 -91.9 374.6 -91.9 L 374.6 -91.9 L 374.6 -91.9 Q 380.7 -91.9 383.7 -89.3 L 383.7 -89.3 L 383.7 -89.3 Q 385.9 -87.4 385.9 -84.3 L 385.9 -84.3 L 385.9 -84.3 Q 385.9 -73 366.5 -73 L 366.5 -73 L 366.5 -73 Q 366.2 -71.3 366.2 -69.9 L 366.2 -69.9 L 366.2 -69.9 Q 366.2 -67 367.5 -65.9 L 367.5 -65.9 L 367.5 -65.9 Q 368.8 -64.7 371.3 -64.7 L 371.3 -64.7 L 371.3 -64.7 Q 373.7 -64.7 376.3 -65.9 L 376.3 -65.9 L 376.3 -65.9 Q 378.9 -67 380 -68.8 Z M 366.9 -75.8 L 366.9 -75.8 L 366.9 -75.8 Q 371.4 -75.8 374.1 -78.6 L 374.1 -78.6 L 374.1 -78.6 Q 376.7 -81.3 376.7 -85.5 L 376.7 -85.5 L 376.7 -85.5 Q 376.7 -87 376.1 -87.8 L 376.1 -87.8 L 376.1 -87.8 Q 375.6 -88.6 374.5 -88.6 L 374.5 -88.6 L 374.5 -88.6 Q 373.4 -88.6 372.5 -88.2 L 372.5 -88.2 L 372.5 -88.2 Q 371.6 -87.8 370.6 -86.4 L 370.6 -86.4 L 370.6 -86.4 Q 368.2 -83.2 366.9 -75.8 Z M 408.1 -75.9 L 408.1 -75.9 L 408.1 -75.9 Q 410.4 -80 410.4 -84.2 L 410.4 -84.2 L 410.4 -84.2 Q 410.4 -87 408.4 -87 L 408.4 -87 L 408.4 -87 Q 406.9 -87 405.3 -84.3 L 405.3 -84.3 L 405.3 -84.3 Q 403.6 -81.7 403.1 -78.3 L 403.1 -78.3 L 399.8 -58 L 386.5 -56.7 L 393.1 -90.6 L 403.6 -91.9 L 402.5 -85.4 L 402.5 -85.4 Q 405.6 -91.9 412.7 -91.9 L 412.7 -91.9 L 412.7 -91.9 Q 416.4 -91.9 418.4 -90 L 418.4 -90 L 418.4 -90 Q 420.4 -88 420.4 -84.1 L 420.4 -84.1 L 420.4 -84.1 Q 420.4 -80.2 417.8 -77.7 L 417.8 -77.7 L 417.8 -77.7 Q 415.2 -75.2 410.8 -75.2 L 410.8 -75.2 L 410.8 -75.2 Q 408.9 -75.2 408.1 -75.9 Z M 441.8 -65.2 L 441.8 -65.2 L 441.8 -65.2 Q 438.5 -61.7 432.4 -61.7 L 432.4 -61.7 L 432.4 -61.7 Q 424.8 -61.7 423.2 -67.3 L 423.2 -67.3 L 423.2 -67.3 Q 422.6 -69 422.6 -70.8 L 422.6 -70.8 L 422.6 -70.8 Q 422.6 -72.7 423 -74.6 L 423 -74.6 L 426 -90.6 L 439 -91.9 L 435.5 -73.3 L 435.5 -73.3 Q 435.4 -72.4 435.2 -71.5 L 435.2 -71.5 L 435.2 -71.5 Q 435 -70.6 435 -69.7 L 435 -69.7 L 435 -69.7 Q 435 -68.8 435.3 -68.2 L 435.3 -68.2 L 435.3 -68.2 Q 435.6 -67.6 436.1 -67.2 L 436.1 -67.2 L 436.1 -67.2 Q 436.9 -66.7 438.2 -66.7 L 438.2 -66.7 L 438.2 -66.7 Q 439.6 -66.7 440.8 -68.3 L 440.8 -68.3 L 440.8 -68.3 Q 442 -70 442.5 -72.9 L 442.5 -72.9 L 446.1 -90.6 L 458.7 -91.9 L 453.9 -66.7 L 453.9 -66.7 Q 451.5 -54.4 446.6 -49.6 L 446.6 -49.6 L 446.6 -49.6 Q 444.1 -47.1 440.9 -46.1 L 440.9 -46.1 L 440.9 -46.1 Q 437.7 -45.1 433.5 -45.1 L 433.5 -45.1 L 433.5 -45.1 Q 426.8 -45.1 423 -47.2 L 423 -47.2 L 423 -47.2 Q 419.1 -49.3 419.1 -52.8 L 419.1 -52.8 L 419.1 -52.8 Q 419.1 -55.5 421.1 -57 L 421.1 -57 L 421.1 -57 Q 423.1 -58.5 426.2 -58.5 L 426.2 -58.5 L 426.2 -58.5 Q 428.9 -58.5 430.9 -57.3 L 430.9 -57.3 L 430.9 -57.3 Q 432.1 -56.6 432.7 -55.7 L 432.7 -55.7 L 432.7 -55.7 Q 431.2 -54.4 431.2 -52.3 L 431.2 -52.3 L 431.2 -52.3 Q 431.2 -49.5 433.8 -49.5 L 433.8 -49.5 L 433.8 -49.5 Q 438 -49.5 440.4 -59.2 L 440.4 -59.2 L 440.4 -59.2 Q 441.1 -62.1 441.8 -65.2 Z" fill="url(#editing-gradient-gradient)"></path></g></g><style>text {
  font-size: 64px;
  font-family: Arial Black;
  dominant-baseline: central;
  text-anchor: middle;
}</style></svg>